<?xml version="1.0" encoding="UTF-8" standalone="no"?>
<svg
   version="1.1"
   width="626.42902"
   height="146.52742"
   id="svg232"
   xmlns="http://www.w3.org/2000/svg"
   xmlns:svg="http://www.w3.org/2000/svg"
   xmlns:rdf="http://www.w3.org/1999/02/22-rdf-syntax-ns#"
   xmlns:cc="http://creativecommons.org/ns#"
   xmlns:dc="http://purl.org/dc/elements/1.1/">
  <defs
     id="defs236" />
  <title
     id="title148">Diagram Overpass API</title>
  <path
     d="m 56.129248,63.763129 15.78035,-9.11405 15.77969,9.10814 v 18.22252 l -15.77969,9.10846 -15.78035,-9.10846 z m -6.6627,14.36673 -12.269261,-7.08291 c -0.06434,-0.0322 -0.120149,-0.0794 -0.161518,-0.13788 -0.04168,-0.0587 -0.06829,-0.12705 -0.07682,-0.19829 v -33.88205 c 0.0034,-5.189316 1.484537,-10.270293 4.270759,-14.648395 2.78654,-4.378108 6.76183,-7.871792 11.46166,-10.072335 4.69983,-2.2008743 9.92887,-3.0170063 15.07583,-2.3538543 5.14697,0.6634753 9.99848,2.7793233 13.98624,6.0996663 -0.22127,0.12081 -0.60603,0.333221 -0.86209,0.488501 L 51.871298,33.10491 c -0.72848,0.414308 -1.33287,1.014421 -1.75243,1.73995 -0.4189,0.724869 -0.63722,1.548879 -0.63229,2.386029 z m 76.748162,-25.24797 c -0.21503,-0.13231 -0.59158,-0.35916 -0.86176,-0.51411 L 96.332238,35.604859 c -0.72322,-0.422185 -1.5456,-0.644767 -2.38307,-0.644767 -0.83748,0 -1.66017,0.222582 -2.3834,0.644767 l -35.43062,20.45785 v -14.16515 c -0.004,-0.0726 0.01,-0.14477 0.0404,-0.21043 0.0305,-0.0654 0.0768,-0.12278 0.13493,-0.16612 L 85.647008,24.59722 c 4.49399,-2.591542 9.63341,-3.849559 14.816482,-3.627302 5.18341,0.222912 10.19577,1.916569 14.45175,4.883673 4.25565,2.967105 7.5783,7.084877 9.57957,11.871378 2.00094,4.7865 2.59778,10.04376 1.71992,15.15692 m -12.20853,18.37451 -35.430602,-20.45752 12.2663,-7.07995 c 0.0601,-0.0397 0.12968,-0.064 0.2019,-0.0706 0.0726,-0.007 0.14478,0.005 0.21175,0.0335 l 29.339152,16.9379 c 4.49498,2.59646 8.15675,6.41942 10.55787,11.02208 2.40015,4.60233 3.43985,9.79296 2.99732,14.9652 -0.44287,5.17192 -2.35025,10.11042 -5.49792,14.237711 -3.14832,4.12729 -7.40725,7.272 -12.27812,9.06644 v -1.0026 -33.525861 c 0.007,-0.83583 -0.2088,-1.65853 -0.62508,-2.38372 -0.41627,-0.7252 -1.01737,-1.32631 -1.74257,-1.74258 M 13.228017,47.804849 c 3.186408,-5.5373 8.219454,-9.77621 14.217025,-11.9761 0,0.25016 -0.0141,0.6927 -0.0141,0.99998 v 33.52552 c -0.0054,0.83748 0.212735,1.66083 0.631636,2.38636 0.41857,0.7252 1.022628,1.32564 1.750126,1.73995 l 35.430604,20.45523 -12.26598,7.082251 c -0.0604,0.0401 -0.13,0.0643 -0.20189,0.0706 -0.0722,0.007 -0.14511,-0.005 -0.21175,-0.0328 L 23.224534,85.103109 c -6.264139,-3.62763 -10.833967,-9.59106 -12.707858,-16.58303 -1.8738971,-6.99163 -0.8988641,-14.44124 2.711362,-20.71523 m 7.634434,63.353501 c -3.200193,-5.52975 -4.353809,-12.008601 -3.258295,-18.303271 0.215682,0.12935 0.591904,0.35947 0.862094,0.51475 l 29.020047,16.762281 c 0.72323,0.42284 1.54593,0.64575 2.38373,0.64575 0.83747,0 1.66017,-0.22291 2.3834,-0.64575 l 35.43061,-20.457531 v 14.165151 c 0.004,0.0722 -0.01,0.1451 -0.0404,0.21044 -0.0305,0.0657 -0.0771,0.12278 -0.13493,0.16611 l -29.33617,16.93791 c -6.27498,3.61417 -13.72754,4.59117 -20.722131,2.71728 -6.994598,-1.8739 -12.960323,-6.44635 -16.587955,-12.71312 m 58.684536,25.06347 c -6.38923,0.009 -12.57786,-2.22845 -17.48419,-6.32127 0.22127,-0.12048 0.60931,-0.33354 0.86209,-0.48816 l 29.02006,-16.76293 c 0.72847,-0.41464 1.33352,-1.01541 1.75242,-1.74127 0.41923,-0.72585 0.63754,-1.54987 0.63262,-2.38767 V 67.607759 l 12.266312,7.08258 c 0.064,0.0322 0.11917,0.0794 0.16119,0.13821 0.0417,0.0587 0.0676,0.12672 0.0771,0.19796 v 33.882051 c -0.01,7.23687 -2.88635,14.17468 -8.000812,19.29406 -5.11513,5.12005 -12.05029,8.00344 -19.28684,8.0192 M 134.32906,59.651599 c 1.63358,-4.90665 2.20054,-10.10516 1.66215,-15.24818 -0.53841,-5.14336 -2.1687,-10.112062 -4.78257,-14.57388 -3.87483,-6.748702 -9.79361,-12.092315 -16.90245,-15.259023 -7.10851,-3.166708 -15.039402,-3.993017 -22.648882,-2.360092 -3.43196,-3.8676073 -7.65019,-6.9578223 -12.37301,-9.0634933 -4.72314,-2.105334 -9.84121,-3.17753903 -15.01215,-3.14503903 -7.77921,-0.01868 -15.36374,2.43330203 -21.65973,7.00280603 -6.29599,4.5698283 -10.97809,11.0207703 -13.371344,18.4231003 -5.067846,1.037405 -9.855655,3.145369 -14.043022,6.183053 -4.187367,3.037359 -7.6771121,6.934518 -10.2364781,11.430158 -3.905699,6.73031 -5.57276302,14.52659 -4.76122402,22.26608 0.81186302,7.73883 4.06064902,15.0197 9.27819002,20.79305 -1.633578,4.90632 -2.200536,10.10483 -1.662471,15.248181 0.538403,5.14302 2.169027,10.11173 4.7828931,14.57388 3.875161,6.7487 9.793939,12.09133 16.902778,15.25804 7.108185,3.16703 15.039398,3.99334 22.648228,2.36107 3.43196,3.86762 7.65085,6.9575 12.37333,9.06317 4.72314,2.10534 9.84089,3.17787 15.01182,3.14536 7.78315,0.0204 15.37196,-2.43297 21.669912,-7.00575 6.29895,-4.57213 10.98171,-11.02767 13.37332,-18.4346 5.06751,-1.0374 9.85533,-3.14504 14.0427,-6.18305 4.18703,-3.03736 7.67711,-6.93452 10.23647,-11.43015 3.90077,-6.729661 5.56423,-14.524301 4.75007,-22.260511 -0.81351,-7.73588 -4.06262,-15.01346 -9.27853,-20.78418"
     style="fill:#000000;fill-opacity:1;fill-rule:nonzero;stroke:none;stroke-width:0.328291"
     id="path534" />
  <polyline
     fill="#55ff22"
     stroke="none"
     points="160.301 254.681, 169.99 247.246, 178.995 238.995, 187.246 229.99, 194.681 220.301, 201.244 210, 206.883 199.167, 211.557 187.883, 215.23 176.235, 217.873 164.311, 219.467 152.202, 220 140, 219.467 127.798, 217.873 115.689, 215.23 103.765, 211.557 92.1172, 206.883 80.8334, 201.244 70, 194.681 59.6993, 187.246 50.0097, 178.995 41.0051, 167.681 52.3188, 150.711 1.40707, 201.622 18.3776, 190.309 29.6913, 199.503 39.7251, 207.788 50.5221, 215.1 62, 221.384 74.0716, 226.592 86.6449, 230.684 99.6242, 233.63 112.911, 235.406 126.404, 236 140, 235.406 153.596, 233.63 167.089, 230.684 180.376, 226.592 193.355, 221.384 205.928, 215.1 218, 207.788 229.478, 199.503 240.275, 190.309 250.309, 180.275 259.503, 169.478 267.788"
     id="polyline226"
     transform="matrix(0.51538127,0,0,0.51538127,65.293638,5.4274007)"
     style="stroke:#55ff22;stroke-width:15.1004;stroke-dasharray:none;stroke-opacity:1" />
  <text
     x="239.27258"
     y="60.447601"
     font-family="'Liberation Sans', sans-serif"
     font-size="85.7px"
     font-weight="bold"
     id="text228"
     style="stroke-width:1.07125">Overpass</text>
  <text
     x="239.27258"
     y="146.1476"
     font-family="'Liberation Sans', sans-serif"
     font-size="107.125px"
     fill="#55ff22"
     font-weight="bold"
     id="text230"
     style="stroke-width:1.07125">AI</text>
  <!--
<text x="30" y="30" font-family="Liberation Sans, sans-serif"><tspan font-size="32px" fill="none">SIR1</tspan>
 <tspan font-size="16px" dx="20">von</tspan>
  <tspan font-size="24px" dx="20">Capolinea Nord - Pontevigodarzere</tspan></text>
<text x="30" y="60" font-family="Liberation Sans, sans-serif"><tspan font-size="32px" fill="none">SIR1</tspan>
  <tspan font-size="16px" dx="20">nach</tspan>
  <tspan font-size="24px" dx="20">Capolinea Sud - Guizza</tspan></text>
<text x="30" y="45" font-family="Liberation Sans, sans-serif" font-size="32px" fill="blue">SIR1</text>

<polyline fill="none" stroke="gray" stroke-width="1px" points="157.279 310, 157.279 330"/>

<polyline fill="none" stroke="gray" stroke-width="1px" points="199.706 310, 199.706 330"/>

<polyline fill="none" stroke="gray" stroke-width="1px" points="242.132 310, 242.132 330"/>

<polyline fill="none" stroke="gray" stroke-width="1px" points="284.558 310, 284.558 330"/>

<polyline fill="none" stroke="gray" stroke-width="1px" points="326.985 310, 326.985 330"/>

<polyline fill="none" stroke="gray" stroke-width="1px" points="1034.09 310, 1034.09 330"/>

<polyline fill="none" stroke="gray" stroke-width="1px" points="1076.52 310, 1076.52 330"/>

<polyline fill="none" stroke="gray" stroke-width="1px" points="1260.37 310, 1260.37 330"/>

<polyline fill="none" stroke="gray" stroke-width="1px" points="1430.07 310, 1430.07 330"/>

<polyline fill="none" stroke="blue" stroke-width="7px" points="30 320, 1472.5 320"/>
<circle cx="30" cy="320" r="9" fill="white" stroke="blue" stroke-width="2px"/>

<text x="0" y="-10" transform="translate(30,320) rotate(-45,0,-10)" font-family="Liberation Sans, sans-serif" font-size="10px" font-weight="bold">Pontevigodarzere</text>

<text x="0" y="0" transform="translate(30,340)" font-family="Liberation Sans, sans-serif" font-size="10px" text-anchor="middle" fill="#777777">P+R</text>

<text x="0" y="0" transform="translate(30,350)" font-family="Liberation Sans, sans-serif" font-size="10px" text-anchor="middle" fill="#c52726">4</text>

<text x="0" y="0" transform="translate(30,360)" font-family="Liberation Sans, sans-serif" font-size="10px" text-anchor="middle" fill="#f01d14">19</text>


<text x="0" y="-10" transform="translate(72.4264,320) rotate(-45,0,-10)" font-family="Liberation Sans, sans-serif" font-size="10px">Fornace Morandi</text>

<circle cx="114.853" cy="320" r="7" fill="blue"/>

<text x="0" y="-10" transform="translate(114.853,320) rotate(-45,0,-10)" font-family="Liberation Sans, sans-serif" font-size="10px">San Gregorio</text>

<circle cx="157.279" cy="320" r="7" fill="white" stroke="blue" stroke-width="2px"/>

<text x="0" y="-10" transform="translate(157.279,320) rotate(-45,0,-10)" font-family="Liberation Sans, sans-serif" font-size="10px">San Carlo</text>

<text x="0" y="0" transform="translate(157.279,340)" font-family="Liberation Sans, sans-serif" font-size="10px" text-anchor="middle" fill="#869940">15</text>

<text x="0" y="0" transform="translate(157.279,350)" font-family="Liberation Sans, sans-serif" font-size="10px" text-anchor="middle" fill="#00ab4c">16</text>

<text x="0" y="0" transform="translate(157.279,360)" font-family="Liberation Sans, sans-serif" font-size="10px" text-anchor="middle" fill="#6f2f26">24</text>

<circle cx="199.706" cy="320" r="7" fill="white" stroke="blue" stroke-width="2px"/>

<text x="0" y="-10" transform="translate(199.706,320) rotate(-45,0,-10)" font-family="Liberation Sans, sans-serif" font-size="10px">Palasport</text>

<text x="0" y="0" transform="translate(199.706,340)" font-family="Liberation Sans, sans-serif" font-size="10px" text-anchor="middle" fill="#00ab4c">16</text>

<circle cx="242.132" cy="320" r="7" fill="white" stroke="blue" stroke-width="2px"/>

<text x="0" y="-10" transform="translate(242.132,320) rotate(-45,0,-10)" font-family="Liberation Sans, sans-serif" font-size="10px">Dazio</text>

<text x="0" y="0" transform="translate(242.132,340)" font-family="Liberation Sans, sans-serif" font-size="10px" text-anchor="middle" fill="#008a46">1</text>

<text x="0" y="0" transform="translate(242.132,350)" font-family="Liberation Sans, sans-serif" font-size="10px" text-anchor="middle" fill="#00ab4c">16</text>

<text x="0" y="0" transform="translate(242.132,360)" font-family="Liberation Sans, sans-serif" font-size="10px" text-anchor="middle" fill="#683d36">22</text>

<circle cx="284.558" cy="320" r="7" fill="white" stroke="blue" stroke-width="2px"/>

<text x="0" y="-10" transform="translate(284.558,320) rotate(-45,0,-10)" font-family="Liberation Sans, sans-serif" font-size="10px">Arcella</text>

<text x="0" y="0" transform="translate(284.558,340)" font-family="Liberation Sans, sans-serif" font-size="10px" text-anchor="middle" fill="#008a46">1</text>

<text x="0" y="0" transform="translate(284.558,350)" font-family="Liberation Sans, sans-serif" font-size="10px" text-anchor="middle" fill="#00ab4c">16</text>

<text x="0" y="0" transform="translate(284.558,360)" font-family="Liberation Sans, sans-serif" font-size="10px" text-anchor="middle" fill="#683d36">22</text>

<circle cx="326.985" cy="320" r="7" fill="white" stroke="blue" stroke-width="2px"/>

<text x="0" y="-10" transform="translate(326.985,320) rotate(-45,0,-10)" font-family="Liberation Sans, sans-serif" font-size="10px">Borgomagno</text>

<text x="0" y="0" transform="translate(326.985,340)" font-family="Liberation Sans, sans-serif" font-size="10px" text-anchor="middle" fill="#777777">P+R</text>

<text x="0" y="0" transform="translate(326.985,350)" font-family="Liberation Sans, sans-serif" font-size="10px" text-anchor="middle" fill="#1baa40">13</text>

<text x="0" y="0" transform="translate(326.985,360)" font-family="Liberation Sans, sans-serif" font-size="10px" text-anchor="middle" fill="#869940">15</text>

<text x="0" y="0" transform="translate(326.985,370)" font-family="Liberation Sans, sans-serif" font-size="10px" text-anchor="middle" fill="#00ab4c">16</text>

<text x="0" y="0" transform="translate(326.985,380)" font-family="Liberation Sans, sans-serif" font-size="10px" text-anchor="middle" fill="#683d36">22</text>

<text x="0" y="0" transform="translate(326.985,390)" font-family="Liberation Sans, sans-serif" font-size="10px" text-anchor="middle" fill="#6f2f26">24</text>

<circle cx="369.411" cy="320" r="7" fill="white" stroke="blue" stroke-width="2px"/>

<text x="0" y="-10" transform="translate(369.411,320) rotate(-45,0,-10)" font-family="Liberation Sans, sans-serif" font-size="10px">Stazione FS</text>

<text x="0" y="-10" transform="translate(383.553,320) rotate(-45,0,-10)" font-family="Liberation Sans, sans-serif" font-size="10px">
  <tspan dx="5" fill="#0000ff">A</tspan>
  <tspan dx="5" fill="#ffbf3f">AT</tspan>
  <tspan dx="5" fill="#09aae0">DP</tspan>
  <tspan dx="5" fill="#0000ff">M</tspan>
  <tspan dx="5" fill="#777777">P+R</tspan>
  <tspan dx="5" fill="#0000ff">T</tspan>
</text>

<text x="0" y="-10" transform="translate(397.696,320) rotate(-45,0,-10)" font-family="Liberation Sans, sans-serif" font-size="10px">
  <tspan dx="5" fill="#008a46">1</tspan>
  <tspan dx="5" fill="#d30d84">3</tspan>
  <tspan dx="5" fill="#2c7fc1">5</tspan>
  <tspan dx="5" fill="#312f9a">6</tspan>
  <tspan dx="5" fill="#f66c85">7</tspan>
  <tspan dx="5" fill="#f4911c">9</tspan>
</text>

<text x="0" y="-10" transform="translate(411.838,320) rotate(-45,0,-10)" font-family="Liberation Sans, sans-serif" font-size="10px">
  <tspan dx="5" fill="#cf1f5d">10</tspan>
  <tspan dx="5" fill="#b86a3a">12</tspan>
  <tspan dx="5" fill="#1baa40">13</tspan>
  <tspan dx="5" fill="#869940">15</tspan>
  <tspan dx="5" fill="#00ab4c">16</tspan>
  <tspan dx="5" fill="#c36528">18</tspan>
</text>

<text x="0" y="-10" transform="translate(425.98,320) rotate(-45,0,-10)" font-family="Liberation Sans, sans-serif" font-size="10px">
  <tspan dx="5" fill="#683d36">22</tspan>
  <tspan dx="5" fill="#6f2f26">24</tspan>
  <tspan dx="5" fill="#7fcb9c">41</tspan>
  <tspan dx="5" fill="#8186c0">42</tspan>
  <tspan dx="5" fill="#f3976e">43</tspan>
</text>

<circle cx="468.406" cy="320" r="7" fill="white" stroke="blue" stroke-width="2px"/>

<text x="0" y="-10" transform="translate(468.406,320) rotate(-45,0,-10)" font-family="Liberation Sans, sans-serif" font-size="10px">Trieste</text>

<text x="0" y="-10" transform="translate(482.548,320) rotate(-45,0,-10)" font-family="Liberation Sans, sans-serif" font-size="10px">
  <tspan dx="5" fill="#0000ff">A</tspan>
  <tspan dx="5" fill="#ffbf3f">AT</tspan>
  <tspan dx="5" fill="#09aae0">DP</tspan>
  <tspan dx="5" fill="#0000ff">M</tspan>
  <tspan dx="5" fill="#0000ff">T</tspan>
  <tspan dx="5" fill="#d30d84">3</tspan>
</text>

<text x="0" y="-10" transform="translate(496.69,320) rotate(-45,0,-10)" font-family="Liberation Sans, sans-serif" font-size="10px">
  <tspan dx="5" fill="#2c7fc1">5</tspan>
  <tspan dx="5" fill="#f4911c">9</tspan>
  <tspan dx="5" fill="#cf1f5d">10</tspan>
  <tspan dx="5" fill="#006332">11</tspan>
  <tspan dx="5" fill="#b86a3a">12</tspan>
  <tspan dx="5" fill="#1baa40">13</tspan>
</text>

<text x="0" y="-10" transform="translate(510.833,320) rotate(-45,0,-10)" font-family="Liberation Sans, sans-serif" font-size="10px">
  <tspan dx="5" fill="#869940">15</tspan>
  <tspan dx="5" fill="#00ab4c">16</tspan>
  <tspan dx="5" fill="#c36528">18</tspan>
  <tspan dx="5" fill="#683d36">22</tspan>
  <tspan dx="5" fill="#6f2f26">24</tspan>
  <tspan dx="5" fill="#8186c0">42</tspan>
</text>

<circle cx="553.259" cy="320" r="7" fill="white" stroke="blue" stroke-width="2px"/>

<text x="0" y="-10" transform="translate(553.259,320) rotate(-45,0,-10)" font-family="Liberation Sans, sans-serif" font-size="10px">Eremitani</text>

<text x="0" y="-10" transform="translate(567.401,320) rotate(-45,0,-10)" font-family="Liberation Sans, sans-serif" font-size="10px">
  <tspan dx="5" fill="#0000ff">A</tspan>
  <tspan dx="5" fill="#ffbf3f">AT</tspan>
  <tspan dx="5" fill="#0000ff">M</tspan>
  <tspan dx="5" fill="#0000ff">T</tspan>
  <tspan dx="5" fill="#d30d84">3</tspan>
  <tspan dx="5" fill="#2c7fc1">5</tspan>
</text>

<text x="0" y="-10" transform="translate(581.543,320) rotate(-45,0,-10)" font-family="Liberation Sans, sans-serif" font-size="10px">
  <tspan dx="5" fill="#f4911c">9</tspan>
  <tspan dx="5" fill="#cf1f5d">10</tspan>
  <tspan dx="5" fill="#006332">11</tspan>
  <tspan dx="5" fill="#b86a3a">12</tspan>
  <tspan dx="5" fill="#1baa40">13</tspan>
  <tspan dx="5" fill="#869940">15</tspan>
</text>

<text x="0" y="-10" transform="translate(595.685,320) rotate(-45,0,-10)" font-family="Liberation Sans, sans-serif" font-size="10px">
  <tspan dx="5" fill="#00ab4c">16</tspan>
  <tspan dx="5" fill="#c36528">18</tspan>
  <tspan dx="5" fill="#683d36">22</tspan>
  <tspan dx="5" fill="#6f2f26">24</tspan>
  <tspan dx="5" fill="#8186c0">42</tspan>
</text>

<circle cx="638.112" cy="320" r="7" fill="white" stroke="blue" stroke-width="2px"/>

<text x="0" y="-10" transform="translate(638.112,320) rotate(-45,0,-10)" font-family="Liberation Sans, sans-serif" font-size="10px">Ponti Romani</text>

<text x="0" y="-10" transform="translate(652.254,320) rotate(-45,0,-10)" font-family="Liberation Sans, sans-serif" font-size="10px">
  <tspan dx="5" fill="#0000ff">A</tspan>
  <tspan dx="5" fill="#ffbf3f">AT</tspan>
  <tspan dx="5" fill="#09aae0">DP</tspan>
  <tspan dx="5" fill="#0000ff">M</tspan>
  <tspan dx="5" fill="#0000ff">T</tspan>
  <tspan dx="5" fill="#d30d84">3</tspan>
</text>

<text x="0" y="-10" transform="translate(666.396,320) rotate(-45,0,-10)" font-family="Liberation Sans, sans-serif" font-size="10px">
  <tspan dx="5" fill="#2c7fc1">5</tspan>
  <tspan dx="5" fill="#f4911c">9</tspan>
  <tspan dx="5" fill="#cf1f5d">10</tspan>
  <tspan dx="5" fill="#006332">11</tspan>
  <tspan dx="5" fill="#b86a3a">12</tspan>
  <tspan dx="5" fill="#1baa40">13</tspan>
</text>

<text x="0" y="-10" transform="translate(680.538,320) rotate(-45,0,-10)" font-family="Liberation Sans, sans-serif" font-size="10px">
  <tspan dx="5" fill="#869940">15</tspan>
  <tspan dx="5" fill="#00ab4c">16</tspan>
  <tspan dx="5" fill="#c36528">18</tspan>
  <tspan dx="5" fill="#683d36">22</tspan>
  <tspan dx="5" fill="#8186c0">42</tspan>
</text>

<circle cx="722.965" cy="320" r="7" fill="white" stroke="blue" stroke-width="2px"/>

<text x="0" y="-10" transform="translate(722.965,320) rotate(-45,0,-10)" font-family="Liberation Sans, sans-serif" font-size="10px">Tito Livio</text>

<text x="0" y="-10" transform="translate(737.107,320) rotate(-45,0,-10)" font-family="Liberation Sans, sans-serif" font-size="10px">
  <tspan dx="5" fill="#0000ff">A</tspan>
  <tspan dx="5" fill="#ffbf3f">AT</tspan>
  <tspan dx="5" fill="#09aae0">DP</tspan>
  <tspan dx="5" fill="#0000ff">M</tspan>
  <tspan dx="5" fill="#0000ff">T</tspan>
  <tspan dx="5" fill="#d30d84">3</tspan>
</text>

<text x="0" y="-10" transform="translate(751.249,320) rotate(-45,0,-10)" font-family="Liberation Sans, sans-serif" font-size="10px">
  <tspan dx="5" fill="#006332">11</tspan>
  <tspan dx="5" fill="#b86a3a">12</tspan>
  <tspan dx="5" fill="#1baa40">13</tspan>
  <tspan dx="5" fill="#00ab4c">16</tspan>
  <tspan dx="5" fill="#c36528">18</tspan>
  <tspan dx="5" fill="#683d36">22</tspan>
</text>

<circle cx="793.675" cy="320" r="7" fill="white" stroke="blue" stroke-width="2px"/>

<text x="0" y="-10" transform="translate(793.675,320) rotate(-45,0,-10)" font-family="Liberation Sans, sans-serif" font-size="10px">Santo</text>

<text x="0" y="-10" transform="translate(807.817,320) rotate(-45,0,-10)" font-family="Liberation Sans, sans-serif" font-size="10px">
  <tspan dx="5" fill="#0000ff">A</tspan>
  <tspan dx="5" fill="#ffbf3f">AT</tspan>
  <tspan dx="5" fill="#09aae0">DP</tspan>
  <tspan dx="5" fill="#0000ff">M</tspan>
  <tspan dx="5" fill="#0000ff">T</tspan>
  <tspan dx="5" fill="#d30d84">3</tspan>
</text>

<text x="0" y="-10" transform="translate(821.96,320) rotate(-45,0,-10)" font-family="Liberation Sans, sans-serif" font-size="10px">
  <tspan dx="5" fill="#006332">11</tspan>
  <tspan dx="5" fill="#b86a3a">12</tspan>
  <tspan dx="5" fill="#1baa40">13</tspan>
  <tspan dx="5" fill="#00ab4c">16</tspan>
  <tspan dx="5" fill="#c36528">18</tspan>
  <tspan dx="5" fill="#683d36">22</tspan>
</text>

<circle cx="864.386" cy="320" r="7" fill="white" stroke="blue" stroke-width="2px"/>

<text x="0" y="-10" transform="translate(864.386,320) rotate(-45,0,-10)" font-family="Liberation Sans, sans-serif" font-size="10px">Prato Della Valle</text>

<text x="0" y="-10" transform="translate(878.528,320) rotate(-45,0,-10)" font-family="Liberation Sans, sans-serif" font-size="10px">
  <tspan dx="5" fill="#0000ff">A</tspan>
  <tspan dx="5" fill="#ffbf3f">AT</tspan>
  <tspan dx="5" fill="#09aae0">DP</tspan>
  <tspan dx="5" fill="#0000ff">M</tspan>
  <tspan dx="5" fill="#0000ff">T</tspan>
  <tspan dx="5" fill="#d30d84">3</tspan>
</text>

<text x="0" y="-10" transform="translate(892.67,320) rotate(-45,0,-10)" font-family="Liberation Sans, sans-serif" font-size="10px">
  <tspan dx="5" fill="#006332">11</tspan>
  <tspan dx="5" fill="#b86a3a">12</tspan>
  <tspan dx="5" fill="#1baa40">13</tspan>
  <tspan dx="5" fill="#00ab4c">16</tspan>
  <tspan dx="5" fill="#c36528">18</tspan>
  <tspan dx="5" fill="#683d36">22</tspan>
</text>

<text x="0" y="-10" transform="translate(906.812,320) rotate(-45,0,-10)" font-family="Liberation Sans, sans-serif" font-size="10px">
  <tspan dx="5" fill="#6f2f26">24</tspan>
  <tspan dx="5" fill="#f3976e">43</tspan>
</text>

<circle cx="949.239" cy="320" r="7" fill="white" stroke="blue" stroke-width="2px"/>

<text x="0" y="-10" transform="translate(949.239,320) rotate(-45,0,-10)" font-family="Liberation Sans, sans-serif" font-size="10px">Cavalletto</text>

<text x="0" y="-10" transform="translate(963.381,320) rotate(-45,0,-10)" font-family="Liberation Sans, sans-serif" font-size="10px">
  <tspan dx="5" fill="#0000ff">A</tspan>
  <tspan dx="5" fill="#ffbf3f">AT</tspan>
  <tspan dx="5" fill="#09aae0">DP</tspan>
  <tspan dx="5" fill="#0000ff">M</tspan>
  <tspan dx="5" fill="#0000ff">T</tspan>
  <tspan dx="5" fill="#d30d84">3</tspan>
</text>

<text x="0" y="-10" transform="translate(977.523,320) rotate(-45,0,-10)" font-family="Liberation Sans, sans-serif" font-size="10px">
  <tspan dx="5" fill="#006332">11</tspan>
  <tspan dx="5" fill="#b86a3a">12</tspan>
  <tspan dx="5" fill="#1baa40">13</tspan>
  <tspan dx="5" fill="#00ab4c">16</tspan>
  <tspan dx="5" fill="#c36528">18</tspan>
  <tspan dx="5" fill="#683d36">22</tspan>
</text>

<text x="0" y="-10" transform="translate(991.665,320) rotate(-45,0,-10)" font-family="Liberation Sans, sans-serif" font-size="10px">
  <tspan dx="5" fill="#6f2f26">24</tspan>
  <tspan dx="5" fill="#f3976e">43</tspan>
</text>

<circle cx="1034.09" cy="320" r="7" fill="white" stroke="blue" stroke-width="2px"/>

<text x="0" y="-10" transform="translate(1034.09,320) rotate(-45,0,-10)" font-family="Liberation Sans, sans-serif" font-size="10px">Diaz</text>

<text x="0" y="0" transform="translate(1034.09,340)" font-family="Liberation Sans, sans-serif" font-size="10px" text-anchor="middle" fill="#0000ff">A</text>

<text x="0" y="0" transform="translate(1034.09,350)" font-family="Liberation Sans, sans-serif" font-size="10px" text-anchor="middle" fill="#ffbf3f">AT</text>

<text x="0" y="0" transform="translate(1034.09,360)" font-family="Liberation Sans, sans-serif" font-size="10px" text-anchor="middle" fill="#683d36">22</text>

<text x="0" y="0" transform="translate(1034.09,370)" font-family="Liberation Sans, sans-serif" font-size="10px" text-anchor="middle" fill="#6f2f26">24</text>

<text x="0" y="0" transform="translate(1034.09,380)" font-family="Liberation Sans, sans-serif" font-size="10px" text-anchor="middle" fill="#f3976e">43</text>

<circle cx="1076.52" cy="320" r="7" fill="white" stroke="blue" stroke-width="2px"/>

<text x="0" y="-10" transform="translate(1076.52,320) rotate(-45,0,-10)" font-family="Liberation Sans, sans-serif" font-size="10px">Santa Croce</text>

<text x="0" y="0" transform="translate(1076.52,340)" font-family="Liberation Sans, sans-serif" font-size="10px" text-anchor="middle" fill="#0000ff">A</text>

<text x="0" y="0" transform="translate(1076.52,350)" font-family="Liberation Sans, sans-serif" font-size="10px" text-anchor="middle" fill="#ffbf3f">AT</text>

<text x="0" y="0" transform="translate(1076.52,360)" font-family="Liberation Sans, sans-serif" font-size="10px" text-anchor="middle" fill="#683d36">22</text>

<text x="0" y="0" transform="translate(1076.52,370)" font-family="Liberation Sans, sans-serif" font-size="10px" text-anchor="middle" fill="#6f2f26">24</text>

<text x="0" y="0" transform="translate(1076.52,380)" font-family="Liberation Sans, sans-serif" font-size="10px" text-anchor="middle" fill="#f3976e">43</text>

<circle cx="1118.94" cy="320" r="7" fill="white" stroke="blue" stroke-width="2px"/>

<text x="0" y="-10" transform="translate(1118.94,320) rotate(-45,0,-10)" font-family="Liberation Sans, sans-serif" font-size="10px">Cavallotti</text>

<text x="0" y="-10" transform="translate(1133.09,320) rotate(-45,0,-10)" font-family="Liberation Sans, sans-serif" font-size="10px">
  <tspan dx="5" fill="#0000ff">A</tspan>
  <tspan dx="5" fill="#ffbf3f">AT</tspan>
  <tspan dx="5" fill="#2c7fc1">5</tspan>
  <tspan dx="5" fill="#683d36">22</tspan>
  <tspan dx="5" fill="#6f2f26">24</tspan>
  <tspan dx="5" fill="#8186c0">42</tspan>
</text>

<text x="0" y="-10" transform="translate(1147.23,320) rotate(-45,0,-10)" font-family="Liberation Sans, sans-serif" font-size="10px">
  <tspan dx="5" fill="#f3976e">43</tspan>
</text>

<circle cx="1189.66" cy="320" r="7" fill="white" stroke="blue" stroke-width="2px"/>

<text x="0" y="-10" transform="translate(1189.66,320) rotate(-45,0,-10)" font-family="Liberation Sans, sans-serif" font-size="10px">Bassanello</text>

<text x="0" y="-10" transform="translate(1203.8,320) rotate(-45,0,-10)" font-family="Liberation Sans, sans-serif" font-size="10px">
  <tspan dx="5" fill="#0000ff">A</tspan>
  <tspan dx="5" fill="#ffbf3f">AT</tspan>
  <tspan dx="5" fill="#2c7fc1">5</tspan>
  <tspan dx="5" fill="#683d36">22</tspan>
  <tspan dx="5" fill="#6f2f26">24</tspan>
  <tspan dx="5" fill="#8186c0">42</tspan>
</text>

<text x="0" y="-10" transform="translate(1217.94,320) rotate(-45,0,-10)" font-family="Liberation Sans, sans-serif" font-size="10px">
  <tspan dx="5" fill="#f3976e">43</tspan>
</text>

<path d="M -7,0 a 7 7 0 0 0 14,0 Z" style="fill:white; stroke:blue; stroke-width:2px;" transform="translate(1260.37,320)"/>
<polyline fill="none" stroke="blue" stroke-width="2px" points="0 -8, 6 -8" transform="translate(1260.37,320)"/>
<path d="M 4,-4 l 0,-8 l 6,4 Z" style="fill:blue" transform="translate(1260.37,320)"/>

<text x="0" y="-10" transform="translate(1260.37,320) rotate(-45,0,-10)" font-family="Liberation Sans, sans-serif" font-size="10px">Assunta</text>

<text x="0" y="0" transform="translate(1260.37,340)" font-family="Liberation Sans, sans-serif" font-size="10px" text-anchor="middle" fill="#6f2f26">24</text>

<text x="0" y="0" transform="translate(1260.37,350)" font-family="Liberation Sans, sans-serif" font-size="10px" text-anchor="middle" fill="#f3976e">43</text>

<path d="M -7,0 a 7 7 0 0 1 14,0 Z" style="fill:blue" transform="translate(1302.79,320)"/>
<polyline fill="none" stroke="blue" stroke-width="2px" points="-6 8, 0 8" transform="translate(1302.79,320)"/>
<path d="M -4,4 l 0,8 l -6,-4 Z" style="fill:blue" transform="translate(1302.79,320)"/>

<text x="0" y="-10" transform="translate(1302.79,320) rotate(-45,0,-10)" font-family="Liberation Sans, sans-serif" font-size="10px">Sacchetti</text>

<circle cx="1345.22" cy="320" r="7" fill="blue"/>

<text x="0" y="-10" transform="translate(1345.22,320) rotate(-45,0,-10)" font-family="Liberation Sans, sans-serif" font-size="10px">Cuoco</text>

<circle cx="1387.65" cy="320" r="7" fill="blue"/>

<text x="0" y="-10" transform="translate(1387.65,320) rotate(-45,0,-10)" font-family="Liberation Sans, sans-serif" font-size="10px">Guizza</text>

<circle cx="1430.07" cy="320" r="7" fill="white" stroke="blue" stroke-width="2px"/>

<text x="0" y="-10" transform="translate(1430.07,320) rotate(-45,0,-10)" font-family="Liberation Sans, sans-serif" font-size="10px">Capolinea Sud</text>

<text x="0" y="0" transform="translate(1430.07,340)" font-family="Liberation Sans, sans-serif" font-size="10px" text-anchor="middle" fill="#777777">P+R</text>

<text x="0" y="0" transform="translate(1430.07,350)" font-family="Liberation Sans, sans-serif" font-size="10px" text-anchor="middle" fill="#0058a9">88</text>

<circle cx="1472.5" cy="320" r="9" fill="blue"/>

<text x="0" y="-10" transform="translate(1472.5,320) rotate(-45,0,-10)" font-family="Liberation Sans, sans-serif" font-size="10px" font-weight="bold">Saimp</text>
-->
  <metadata
     id="metadata743">
    <rdf:RDF>
      <cc:Work
         rdf:about="">
        <dc:title>Diagram Overpass API</dc:title>
      </cc:Work>
    </rdf:RDF>
  </metadata>
</svg>
